<svg xmlns="http://www.w3.org/2000/svg" version="1.1" xmlns:xlink="http://www.w3.org/1999/xlink" xmlns:svgjs="http://svgjs.com/svgjs" width="296" height="296"><svg width="296" height="296" viewBox="0 0 296 296" fill="none" xmlns="http://www.w3.org/2000/svg">
<g clip-path="url(#clip0_111_2)">
<rect width="296" height="296" rx="148" fill="white"></rect>
<path d="M0 -0.740234V136.9C6.6749 136.9 19.6725 134.168 21.46 142.82C14.2109 142.82 7.18846 144.241 0 144.3V146.52C4.56562 146.52 10.7131 145.742 13.32 150.22C17.2951 148.92 19.065 146.561 23.68 146.52C24.1377 150.123 24.1943 153.972 27.38 156.14C19.177 158.565 8.54574 156.88 0 156.88V162.8H4.44V164.28H0V166.5C5.31533 166.563 7.15391 168.604 7.4 173.9C4.65442 174.097 2.53337 175.129 0 176.12V197.58H29.6C32.8645 197.578 38.4159 198.713 40.7 196.1L43.66 196.84C43.543 194.114 42.3994 190.758 43.5578 188.171C46.5042 181.594 58.4999 177.9 57.008 168.719C56.6299 166.392 54.7733 164.076 53.6197 162.063C51.9728 159.19 50.4921 157.885 47.36 156.88L48.1 153.92C46.1144 155.455 44.6847 156.493 42.18 156.88C41.4979 162.162 40.7 167.061 40.7 172.42C38.175 163.877 43.4017 155.838 41.44 147.26C45.247 146.974 49.4572 145.297 50.32 141.34C49.5685 142.183 49.3516 142.533 48.84 143.56C46.9379 142.541 40.1224 142.671 42.2811 138.611C43.5147 136.291 46.7853 137.144 48.84 137.259C52.0192 137.436 55.6769 136.642 57.551 133.841C60.2869 129.753 60.223 122.457 61.6376 117.66C64.9275 106.503 69.4066 95.2474 73.5769 84.3598C76.8468 75.8231 80.6689 67.0309 85.3886 59.2106C87.6471 55.4674 91.0807 53.1172 92.5 48.8398H91.02L91.76 46.6198C90.2386 46.9805 89.4334 47.3242 88.06 48.0998C86.7524 42.6064 87.32 36.6987 87.32 31.0798C89.3461 31.0855 91.9679 30.7659 93.7447 31.9522C97.0902 34.1864 95.1425 41.8198 94.72 45.1398C98.1099 43.5252 103.119 39.9487 105.059 36.6748C106.266 34.6392 105.364 31.83 107.109 30.0463C108.516 28.6088 110.725 29.0478 112.476 28.4246C114.579 27.6764 115.846 26.2671 116.92 24.4198C114.166 24.4198 109.137 25.3639 107.006 23.2332C105.782 22.0085 105.853 20.0984 105.824 18.4998C105.753 14.7802 104.307 6.26906 107.109 3.40627C108.744 1.73545 111.844 2.22139 113.96 2.21977C114.201 9.63353 119.62 7.90319 125.06 6.65977V1.47977L152.44 0.739766V-0.740234H0Z" fill="white"></path>
<path d="M125.06 1.47977V6.65977C119.805 7.43247 114.511 9.50625 113.96 2.21977C111.992 2.21999 108.752 1.65108 107.109 2.98032C105.839 4.00886 105.878 5.92392 105.831 7.40036C105.715 11.0905 105.795 14.8078 105.821 18.4998C105.83 19.9739 105.597 21.9915 106.581 23.2332C108.39 25.5179 114.32 24.4198 116.92 24.4198C115.45 26.0942 113.905 27.6607 111.74 28.4246C110.288 28.9369 108.357 28.6071 107.109 29.6203C105.269 31.1153 106.164 34.1233 105.059 36.0456C103.03 39.576 98.0308 42.83 94.72 45.1398C95.3697 42.1897 96.9881 34.1025 94.2738 31.9522C92.5422 30.581 89.3794 31.0811 87.32 31.0798C87.32 36.5803 86.4949 42.8049 88.06 48.0998L91.76 46.6198C91.0304 47.7139 91.02 47.5101 91.02 48.8398H92.5C90.8335 53.0623 86.7065 55.2463 84.73 59.1998C79.2488 70.162 73.8803 81.5078 69.8066 93.2398C68.4635 97.1077 67.5485 101.168 66.3534 105.08C64.8822 109.894 62.2913 114.227 60.9266 119.14C59.7079 123.527 60.0202 129.311 57.72 133.2C55.661 136.681 51.8591 137.441 48.1 137.023C46.2269 136.815 42.3446 136.11 41.5634 138.38C39.5776 144.148 46.5308 141.828 48.84 143.56C49.5694 142.465 49.58 142.67 49.58 141.34C49.3988 145.127 44.8566 146.751 41.44 147.26C42.2454 155.725 39.96 163.882 39.96 172.42C41.7062 168.259 41.8144 161.474 42.18 156.88C44.8174 156.678 45.9698 156.19 47.36 153.92V156.88C49.7631 157.987 51.3547 159.039 52.7849 161.334C54.1143 163.467 56.1135 166.224 56.5768 168.719C57.2175 172.17 53.6861 177.848 51.39 180.22C48.9032 182.789 45.1644 184.117 43.5549 187.536C42.2325 190.346 43.428 193.9 43.66 196.84L40.7 196.1C37.4117 198.591 32.1035 197.574 28.12 197.58H0V199.8C8.6768 199.8 17.2584 199.279 25.9 199.071C31.7862 198.929 37.8954 199.692 43.66 198.32L42.92 202.76C39.3313 200.246 33.8393 201.28 29.6 201.28H0V238.28H2.96C2.96 242.969 4.58776 250.318 0 253.08V275.28L3.7 274.54C2.61823 276.34 2.00688 276.891 0 277.5V295.26H129.5C130.599 291.829 131.945 288.589 131.64 284.9C131.009 277.268 124.205 269.176 117.66 265.66C119.63 262.942 122.124 260.529 123.58 257.52C121.665 258.821 120.294 259.955 119.14 261.96C119.727 258.79 123.19 257.119 121.36 253.82C123.012 253.259 124.318 252.527 125.8 251.6L124.32 255.3C125.707 254.895 126.729 254.478 128.02 253.82L126.54 258.26L124.32 257.52L123.58 260.48C126.742 262.606 130.719 261.759 133.549 264.178C139.52 269.28 145.008 276.388 150.287 282.272C152.652 284.907 154.615 288.184 157.62 290.08C157.351 291.731 157.351 292.868 157.62 294.52C156.41 294.116 156.543 294.25 156.14 293.04C155 296.066 160.124 295.26 162.06 295.26L160.58 288.6C162.702 288.312 164.09 287.719 165.76 286.38C164.427 285.964 163.45 285.77 162.06 285.64C163.393 285.224 164.37 285.03 165.76 284.9C164.681 284.1 164.096 283.837 162.8 283.42C164.046 283.254 164.512 283.258 165.76 283.42L167.24 278.24C165.501 277.136 164.163 276.079 162.8 274.54H165.76C165.271 273.507 165.047 273.197 164.28 272.32C167.725 271.495 168.618 272.907 171.747 273.794C173.582 274.314 175.706 274.222 177.6 274.54L174.64 276.76L175.38 279.72L179.82 275.28L178.34 278.98C181.063 278.658 182.16 280.472 184.26 280.46C184.052 282.026 183.816 281.894 185 282.68C184.122 283.557 183.869 283.852 183.52 284.9C184.689 285.406 184.835 285.495 185.74 286.38L190.92 284.9L191.66 287.86C190.237 288.527 190.181 288.656 189.44 290.08C188.732 288.957 188.414 288.349 187.96 287.12C186.447 288.322 185.817 289.076 185 290.82C186.333 291.236 187.31 291.43 188.7 291.56L189.44 295.26C193.779 293.735 199.561 295.26 204.24 295.26H239.02C243.511 295.26 253.363 297.168 256.04 293.04L259 294.52C259.816 293.442 260.142 293.116 261.22 292.3C260.512 293.422 260.194 294.03 259.74 295.26H296C296 288.236 297.516 279.247 295.768 272.446C295.283 270.556 293.842 268.91 293.04 267.14H296V246.42C292.213 246.42 288.554 246.93 285.64 244.2H296V234.58C289.333 234.58 282.542 234.506 276.02 236.06L276.76 238.28C273.691 235.87 272.521 233.269 272.32 229.4H296V102.12C280.513 101.992 263.117 98.9089 247.9 102.86C248.929 105.52 250.423 107.414 252.34 109.52C249.379 107.909 247.989 105.792 246.42 102.86C246.02 104.803 246.618 106.24 247.515 108.041C248.324 109.663 249.292 112.216 250.996 113.101C252.347 113.803 253.665 112.816 255.052 112.893C258.852 113.104 262.524 113.222 266.4 113.22C263.891 117.769 258.872 115.819 254.563 115.654C252.563 115.577 250.629 116.133 248.64 116.18C249.107 118.089 249.916 119.631 250.86 121.36C252.19 121.36 251.986 121.349 253.08 120.62C254.297 125.499 259.575 131.954 255.3 136.16C254.886 133.933 253.48 132.953 252.525 130.959C251.655 129.144 251.478 126.854 250.366 125.163C249.538 123.9 249.249 124.25 248.64 125.06C247.656 122.872 246.578 121.264 247.9 119.14C244.993 116.091 246.308 113.245 247.16 109.52L243.46 110.26C243.306 105.445 240.278 101.406 238.624 96.9398C237.473 93.8325 237.562 90.5195 236.8 87.3198C234.48 87.3997 233.586 86.7529 231.62 85.8398V88.7998C228.109 79.5986 227.42 66.3698 216.82 62.1598C217.55 61.0657 217.56 61.2694 217.56 59.9398C211.201 54.9558 206.837 46.6325 197.58 48.0998C196.34 46.4563 195.17 46.204 193.14 45.8798C194.573 43.8821 195.215 41.5218 196.1 39.2198L190.18 35.5198L193.14 34.0398C189.081 29.3929 185.087 31.7228 179.82 31.0798C182.004 33.5918 186.384 33.0641 189.44 32.5598C187.686 33.6372 186.261 34.3233 184.26 34.7798C185.103 35.5312 185.453 35.7481 186.48 36.2598C185.725 38.4051 185.571 39.448 187.96 39.9598L185.74 41.4398C187.437 42.0705 188.779 42.541 190.18 43.6598C188.934 43.4941 188.468 43.4982 187.22 43.6598V45.1398C189.009 45.6743 190.529 45.8414 192.4 45.8798C191.338 46.9523 190.835 47.5242 190.18 48.8398H194.62V50.3198C192.663 50.3767 191.463 50.3172 190.18 51.7998C188.299 50.5458 188.317 51.1122 188.7 49.5798L185.74 50.3198C186.917 49.0231 187.926 48.2525 189.44 47.3598C188.187 46.5736 187.19 46.2353 185.74 45.8798C184.835 46.7642 184.689 46.8539 183.52 47.3598C182.52 44.3408 179.602 42.9696 178.34 39.9598L176.86 40.6998C176.196 38.2297 175.631 37.0577 173.16 36.2598C173.788 37.7333 174.098 38.3152 175.38 39.2198C174.286 39.9492 174.49 39.9598 173.16 39.9598C174.984 40.9625 176.76 41.5337 178.34 42.9198C176.793 42.6334 177.074 42.6358 176.86 44.3998C171.697 41.6467 166.072 45.1706 160.58 45.8798L161.32 47.3598C152.991 47.8203 145.908 49.6612 139.12 54.7598C140.586 51.8027 142.301 49.9354 145.04 48.0998C141.95 47.1973 140.142 48.9944 139.12 51.7998L136.16 51.0598C134.523 53.84 131.539 55.4041 128.76 56.9798C130.392 55.3134 131.863 53.7062 133.2 51.7998C131.039 52.7863 129.251 54.1701 127.28 55.4998L129.5 53.2798C129.784 49.3537 133.107 47.2795 135.42 44.3998C124.179 48.1383 120.896 61.9882 113.22 69.5598C115.542 61.6694 122.392 55.7779 126.54 48.8398C123.923 49.8731 122.104 51.604 119.88 53.2798C121.205 48.5943 125.751 45.7325 129.5 42.9198C127.568 38.2069 130.511 36.9389 134.68 35.5837C139.428 34.0404 148.514 34.2984 151.7 30.3398C148.225 30.7886 144.357 32.5373 141.34 30.3398C137.229 31.2385 134.569 33.7102 130.24 33.2998C131.727 32.3663 133.036 31.6793 134.68 31.0798C132.359 29.7849 129.9 29.2583 127.28 28.8598L129.5 27.3798C126.883 26.6068 124.666 28.2647 122.1 28.8598C126.519 25.7168 132.142 22.363 137.64 22.1998V20.7198H132.46C135.546 17.8775 142.349 17.143 146.52 16.2798C145.406 15.7743 144.807 15.6686 143.56 15.5398C145.698 14.6137 147.305 13.8646 149.48 14.7998H150.96C152.482 13.6292 153.467 13.4487 155.4 13.3198V-0.740234C145.328 0.592232 135.354 1.47977 125.06 1.47977Z" fill="#FF3399"></path>
<path d="M155.4 -0.740234V13.3198C153.443 13.3767 152.243 13.3173 150.96 14.7998H149.48V13.3198L143.56 14.7998C144.674 15.3052 145.273 15.4109 146.52 15.5398C142.648 17.206 134.703 17.3193 132.46 20.7198H137.64V22.1998C131.965 22.263 126.931 25.3104 122.1 28.1198C124.599 28.9939 127.004 27.2749 129.5 26.6398L127.28 28.8598C129.704 29.5671 132.162 30.1048 134.68 30.3398L130.24 32.5598C134.35 35.0108 137.334 31.596 141.34 30.3398C143.701 33.0272 148.583 30.9441 151.7 30.3398C146.976 34.225 138.935 33.8269 133.203 35.8367C129.533 37.1236 127.051 39.1051 129.5 42.9198C125.348 45.188 120.647 48.352 119.88 53.2798L126.54 48.8398C121.753 54.7003 114.593 61.953 113.22 69.5598C116.464 67.4414 118.111 63.1139 120.264 59.9398C124.174 54.1767 129.096 47.5585 135.42 44.3998C132.477 46.9937 129.506 49.1134 129.5 53.2798C128.076 54.0207 127.947 54.0771 127.28 55.4998C129.441 54.5131 131.229 53.1294 133.2 51.7998C131.568 53.4662 130.097 55.0732 128.76 56.9798C131.773 55.823 135.041 54.2159 136.16 51.0598L139.12 51.7998C140.59 49.1538 142.125 48.1269 145.04 47.3598C142.294 49.51 140.257 51.4033 139.12 54.7598C142.915 52.6279 146.97 49.8769 151.171 48.6474C154.197 47.7617 158.141 47.7384 161.32 47.3598L160.58 45.8798C166.257 45.4281 171.424 42.1136 176.86 44.3998C177.22 42.2393 176.828 42.5418 178.34 42.9198C176.949 41.0889 175.415 40.9048 173.16 40.6998C174.254 39.9703 174.05 39.9598 175.38 39.9598L173.16 36.2598C175.268 37.3837 175.97 38.482 176.86 40.6998L178.34 39.9598C179.264 43.2719 181.947 44.4894 183.52 47.3598C185.068 47.0596 185.015 47.1994 185.74 45.8798L189.44 46.6198C187.849 47.7766 186.743 48.6474 185.74 50.3198L188.7 49.5798C188.724 50.8627 188.701 50.6946 189.44 51.7998C191.212 50.8088 192.594 50.4522 194.62 50.3198V48.8398H190.18L192.4 46.6198C190.748 45.8727 188.993 45.5799 187.22 45.1398V43.6598H190.18C188.96 42.1957 187.59 41.9489 185.74 41.4398C186.834 40.7103 186.63 40.6998 187.96 40.6998C187.036 40.193 186.814 40.1457 185.74 39.9598L186.48 36.2598C185.386 35.5303 185.59 35.5198 184.26 35.5198L189.44 33.2998C186.175 32.1999 182.732 33.297 179.82 31.0798C185.202 32.2061 188.345 30.1727 193.14 34.0398C191.843 34.4571 191.259 34.7198 190.18 35.5198C192.1 37.0488 193.816 38.3047 196.1 39.2198C195.048 41.2238 194.522 43.3741 193.14 45.1398L197.58 48.0998C207.366 47.5478 210.064 55.9359 217.56 59.9398L216.82 62.1598C225.943 67.4825 229.366 78.9148 230.88 88.7998C231.385 87.6853 231.491 87.0867 231.62 85.8398C232.504 86.7448 232.594 86.8906 233.1 88.0598L236.8 87.3198C237.44 90.7667 237.399 94.3735 238.624 97.6798C240.177 101.873 243.135 105.778 243.46 110.26L247.16 109.52C246.267 112.318 243.86 117.534 247.9 118.4C246.258 120.811 247.306 122.389 247.9 125.06C248.784 124.617 248.623 124.715 249.38 123.58L255.3 136.16C260.24 132.956 254.584 124.791 253.08 120.62L250.86 121.36L248.64 116.18C250.613 116.26 252.521 115.852 254.493 115.91C258.475 116.027 264.773 118.123 266.4 113.22C262.614 113.221 259.097 113.022 255.367 112.665C253.921 112.526 252.33 113.38 250.996 112.571C248.255 110.908 246.677 105.738 245.68 102.86C247.641 105.789 248.895 108.291 252.34 109.52L247.9 102.86C264.056 100.722 279.844 102.075 296 102.12V51.0598H290.82C291.291 49.073 291.471 47.1813 291.56 45.1398C292.91 47.1669 293.667 48.773 296 49.5798V-0.740234H278.24V5.91977L254.56 5.17977L231.62 5.91977V-0.740234H155.4Z" fill="white"></path>
<path d="M231.62 -0.740234V5.91977L255.3 5.17977L278.24 5.91977V-0.740234H231.62ZM87.32 23.6798H94.72C94.72 18.298 95.1899 11.9487 93.5589 6.75567C92.8589 4.52655 90.0158 2.14829 87.8587 4.26276C86.3143 5.77595 86.5726 8.41815 86.7916 10.3598C87.2948 14.8193 87.32 19.1911 87.32 23.6798ZM66.6 20.7198C67.0215 18.449 68.096 14.9529 66.5794 12.8812C64.8525 10.5222 54.4064 11.7493 52.6068 13.7663C48.653 18.1976 54.5491 21.3505 58.46 21.1058C61.1914 20.9348 63.8541 20.7201 66.6 20.7198ZM158.114 15.7864C157.784 16.1154 158.566 16.0741 158.606 16.0331C158.936 15.7043 158.154 15.7453 158.114 15.7864ZM168.72 19.2398C170.064 21.269 171.53 21.7676 173.9 22.1998C173.335 19.5495 171.209 19.5013 168.72 19.2398ZM20.72 23.6798C24.3941 25.2215 28.7212 24.1649 32.56 23.6798L31.82 20.7198C26.5083 20.2374 25.1713 20.8186 20.72 23.6798Z" fill="#FF3399"></path>
<path d="M124.32 22.94C126.784 23.5458 129.145 22.1205 131.72 22.2C130.888 18.3399 126.67 21.8147 124.32 22.94Z" fill="white"></path>
<path d="M156.14 23.6797C156.994 25.3439 157.436 25.786 159.1 26.6397C158.246 24.9756 157.804 24.5333 156.14 23.6797ZM160.58 27.3797C165.306 29.7952 170.065 31.8938 175.38 30.3397C173.282 29.6328 170.95 29.7871 168.72 29.5997L169.46 26.6397L165.76 25.8997C165.272 22.0562 161.547 25.2638 160.58 27.3797ZM175.38 23.6797V25.1597H180.56C178.85 24.1288 177.371 23.8534 175.38 23.6797ZM150.22 24.4197C152.034 25.8494 153.875 26.1929 156.14 26.6397C154.305 25.1356 152.566 24.7429 150.22 24.4197Z" fill="#FF3399"></path>
<path d="M125.8 29.5996L123.58 33.2996C125.722 32.4258 126.951 31.6673 128.02 29.5996H125.8Z" fill="white"></path>
<path d="M176.12 31.0796C177.234 31.585 177.833 31.6908 179.08 31.8196C177.966 31.3142 177.367 31.2084 176.12 31.0796ZM170.94 32.5596C171.845 33.444 171.991 33.5337 173.16 34.0396C172.435 32.7199 172.488 32.8598 170.94 32.5596ZM255.3 50.3196C258.679 50.3196 263.77 51.2911 264.92 47.3596L261.96 48.0996L261.22 40.6996C262.655 41.3594 263.084 41.7369 264.18 42.9196C265.041 40.0867 262.799 32.1076 258.695 35.9695C255.731 38.7581 255.464 46.5009 255.3 50.3196Z" fill="#FF3399"></path>
<path d="M122.1 36.9998C124.259 37.7495 125.899 37.0301 128.02 36.2598C125.861 35.51 124.221 36.2294 122.1 36.9998Z" fill="white"></path>
<path d="M177.6 36.2595C178.966 36.6055 179.871 36.4824 181.3 36.2595C179.787 35.6865 179.195 35.8213 177.6 36.2595ZM272.32 35.5195V45.8795C277.498 45.0153 276.019 39.5013 275.28 35.5195H272.32ZM147.26 36.2595C148.183 36.7663 148.405 36.8136 149.48 36.9995C148.556 36.4928 148.334 36.4454 147.26 36.2595ZM138.133 37.2462C137.804 37.5752 138.586 37.5339 138.626 37.4929C138.956 37.1641 138.174 37.205 138.133 37.2462ZM285.64 37.7395C285.64 39.0692 285.65 38.8654 286.38 39.9595C287.648 40.0528 288.18 40.1833 289.34 40.6995L290.08 37.7395H285.64ZM150.22 43.6595C155.856 43.5425 160.373 40.9169 165.76 39.9595V38.4795C161.201 38.8771 152.946 39.6761 150.22 43.6595Z" fill="#FF3399"></path>
<path d="M189.44 38.48C190.412 39.6772 190.829 39.733 192.4 39.96C191.381 39.2855 190.594 38.9212 189.44 38.48Z" fill="white"></path>
<path d="M143.56 39.2197C144.483 39.7265 144.705 39.7738 145.78 39.9597C144.856 39.453 144.634 39.4056 143.56 39.2197ZM133.94 51.0597C139.25 49.0178 144.513 45.0686 149.48 42.1797C144.572 41.1647 136.121 46.8525 133.94 51.0597ZM199.06 41.4397C200.947 43.7714 202.977 45.3972 205.72 46.6197C204.278 43.6167 202.394 41.9237 199.06 41.4397Z" fill="#FF3399"></path>
<path d="M117.66 50.3201C120.986 47.6088 124.15 44.8453 128.02 42.9201C124.083 41.8436 117.488 46.126 117.66 50.3201Z" fill="white"></path>
<path d="M290.82 42.1797V44.3997C291.335 43.2499 291.335 43.3294 290.82 42.1797ZM263.44 43.6597C264.014 45.2371 264.276 45.7101 265.66 46.6197C265.086 45.0422 264.824 44.5693 263.44 43.6597ZM291.56 45.1397L290.82 51.0597H296C294.755 48.9837 293.206 46.9108 291.56 45.1397Z" fill="#FF3399"></path>
<path d="M162.06 47.3596C163.288 47.6604 163.719 47.5879 165.02 47.3596C163.681 46.9347 163.489 47.0152 162.06 47.3596Z" fill="white"></path>
<path d="M247.16 50.3196C248.602 49.6272 249.047 49.2892 250.12 48.0996C248.093 48.2555 247.588 48.3235 247.16 50.3196ZM288.6 48.0996L287.86 51.7996C289.547 50.5857 289.71 49.8476 288.6 48.0996Z" fill="#FF3399"></path>
<path d="M148.74 53.2796H152.44L153.92 49.5796C151.528 50.2308 150.264 51.3381 148.74 53.2796ZM200.294 49.8262C199.964 50.1551 200.746 50.114 200.786 50.0729C201.116 49.744 200.334 49.7852 200.294 49.8262ZM142.08 59.1996C144.241 57.6251 146.555 56.2759 148 54.0196C144.751 54.6776 143.006 55.978 142.08 59.1996ZM189.44 54.0196C187.684 54.7687 186.148 55.2196 184.26 55.4996C185.374 56.005 185.973 56.1108 187.22 56.2396V57.7196C185.041 57.578 183.327 57.0169 181.3 56.2396C180.484 57.3174 180.158 57.6431 179.08 58.4596C179.81 57.3655 179.82 57.5692 179.82 56.2396C177.574 56.9936 175.296 57.4282 173.16 58.4596V55.4996C171.751 55.7655 170.278 56.9921 169.46 56.2396C166.54 58.3366 165.399 61.0272 164.28 64.3796C164.125 63.0129 164.136 62.0535 164.28 60.6796C161.513 62.8141 157.49 65.2744 156.88 68.8196C154.294 68.3493 152.499 68.3108 151.7 71.0396C148.652 71.2657 146.293 72.1096 146.52 75.4796L143.56 74.7396C141.855 76.6754 140.058 77.0787 137.954 78.427C135.72 79.8589 134.161 81.74 131.72 82.8796C130.875 86.6062 129.034 89.6321 126.54 92.4996V90.2796C124.851 91.9387 124.542 92.6794 125.8 94.7196C116.06 101.284 118.938 111.584 119.14 121.36C123.493 120.793 126.387 117.947 130.366 116.593C132.431 115.891 134.758 116.26 136.9 116.113C141.387 115.806 145.713 114.98 150.219 115.85C153.679 116.517 154.016 118.807 156.543 120.602C157.997 121.634 160.357 121.688 162.06 122.1C161.185 125.777 161.32 129.44 161.32 133.2C159.529 132.177 159.055 131.451 158.36 129.5H156.14C154.592 132.292 152.595 132.99 149.48 133.2L150.96 128.76C146.866 126.668 143.711 125.459 139.12 126.54C140.136 129.623 138.347 132.907 139.86 135.42C136.58 135.614 133.417 135.222 130.24 136.16L130.98 138.38C127.968 137.448 125.16 137.853 122.226 137.171C120.236 136.708 119.256 135.246 117.66 136.9L116.92 133.94C112.222 140.045 114.784 149.688 118.998 155.198C121.158 158.024 122.055 160.149 125.8 160.58V165.02L130.98 165.76C130.25 166.854 130.24 166.65 130.24 167.98C136.482 171.249 142.087 170.305 148.74 169.46L149.48 166.5C150.531 169.673 151.602 172.759 151.7 176.12C153.975 176.584 154.976 177.068 156.14 179.08C161.039 179.039 164.867 177.155 169.527 176.312C172.177 175.832 174.927 176.291 177.6 176.043C181.094 175.718 184.419 174.829 187.96 174.573C191.838 174.293 196.284 173.499 197.58 169.46L202.02 170.2V173.9C200.271 174.256 200.157 174.37 199.8 176.12C192.601 174.618 190.332 181.925 185 185C185 186.329 185.01 186.125 185.74 187.22C183.286 187.612 181.87 188.035 180.56 190.18C186.796 190.021 184.867 194.598 179.82 195.261C172.637 196.204 166.687 193.216 159.84 193.14C159.479 191.618 159.135 190.813 158.36 189.44C161.074 189.743 163.769 189.46 166.5 189.44C159.965 185.25 153.469 183.773 145.78 182.78V185H143.56L142.82 182.04C142.313 182.963 142.266 183.186 142.08 184.26H139.86V182.04H136.16C138.065 185.115 139.399 189.763 141.998 192.241C145.13 195.229 148.448 195.322 150.22 199.8L153.18 199.06V202.76C157.216 203.896 162.538 207.439 165.76 210.16C169.865 207.871 172.863 210.332 176.86 211.331C181.314 212.445 186.67 210.618 188.7 206.46C189.946 206.625 190.412 206.621 191.66 206.46L190.92 207.94C192.979 207.653 195.019 207.513 196.711 206.169C200.453 203.199 200.886 197.689 204.98 195.36C204.5 193.355 204.283 191.5 204.24 189.44H206.46V186.48C208.507 187.923 210.922 188.214 213.12 189.44C225.126 173.692 221.839 154.455 220.587 136.16C220.041 128.199 220.4 120.055 217.457 112.48C216.261 109.398 214.749 106.553 213.523 103.534C212.199 100.276 211.511 96.301 208.68 93.9796C209.713 90.3114 206.955 84.2405 209.42 82.1396C208.087 81.7237 207.11 81.5298 205.72 81.3996C205.26 79.2469 204.49 77.448 203.5 75.4796C204.224 74.7352 204.751 74.098 203.651 73.1814C202.007 71.8105 199.586 72.5798 197.772 71.5918C195.902 70.5732 194.529 68.1668 193.14 66.5996L195.36 67.3396L193.88 62.8996C188.485 61.336 190.349 58.075 189.44 54.0196ZM203.994 54.2662C203.664 54.5951 204.446 54.554 204.486 54.513C204.816 54.184 204.034 54.2252 203.994 54.2662ZM202.76 56.2396C203.683 56.7463 203.905 56.7937 204.98 56.9796C204.056 56.4728 203.834 56.4255 202.76 56.2396ZM191.66 58.4596L190.18 59.1996C191.277 59.7851 192.249 59.8432 191.66 58.4596ZM209.42 62.1596C211.044 64.047 213.665 64.0723 216.08 64.3796C214.471 62.5286 211.789 62.6017 209.42 62.1596ZM215.34 67.3396C217.134 68.4355 217.86 68.337 219.04 66.5996L215.34 67.3396Z" fill="white"></path>
<path d="M259 79.9197C260.309 79.2959 260.989 78.7794 261.96 77.6997C259.912 77.6383 259.556 77.9276 259 79.9197ZM261.96 79.1797V80.6597H264.18V79.1797H261.96Z" fill="#FF3399"></path>
<path d="M234.58 88.0596C234.883 90.1123 235.43 92.0015 236.06 93.9796C237.001 91.5413 236.321 89.9162 234.58 88.0596Z" fill="white"></path>
<path d="M176.86 117.66C176.13 116.565 176.12 116.77 176.12 115.44C173.838 119.108 173.163 122.264 173.16 126.54C176.398 126.177 177.681 127.914 180.627 128.499C186.298 129.625 189.845 125.81 190.18 120.62L187.96 121.36C191.848 116.389 199.346 117.703 199.8 124.32H196.84V125.8C199.478 125.601 200.73 125.184 202.02 122.84C204.008 123.211 205.92 123.493 207.94 123.58C207.94 122.037 207.838 122.304 209.42 122.1C208.94 120.328 208.656 119.483 207.2 118.4C206.883 112.218 193.7 114.161 189.44 114.7C193.295 108.325 201.838 109.85 207.94 111C207.406 108.507 200.982 106.655 198.32 106.56C193.548 106.389 188.254 108.566 183.52 109.52C181.671 109.892 178.974 109.958 177.682 111.534C176.39 113.111 176.86 115.765 176.86 117.66Z" fill="#FF3399"></path>
<path d="M252.34 110.26C253.245 111.144 253.391 111.234 254.56 111.74C253.655 110.855 253.509 110.766 252.34 110.26ZM125.06 125.8C129.387 125.237 134.589 123.828 137.64 120.62C132.886 119.215 123.902 118.759 125.06 125.8ZM236.8 122.1C237.14 124.03 237.285 124.784 239.02 123.58C240.328 127.229 243.336 130.793 243.75 134.68C243.985 136.88 243.094 139.186 242.72 141.34C241.034 139.764 239.626 138.601 237.54 137.64L241.24 143.56L237.54 142.08C238.468 145.163 239.026 146.896 236.06 148.74V153.92C238.011 153.225 238.737 152.751 239.76 150.96C238.788 151.528 238.848 151.467 238.28 152.44C238.632 149.153 242.041 146.633 243.506 143.559C246.944 136.34 245.084 125.166 236.8 122.1Z" fill="white"></path>
<path d="M250.86 122.84L252.34 125.8C252.613 124.155 252.236 123.776 250.86 122.84ZM252.34 126.54C252.749 128.994 253.043 129.463 254.56 130.98H253.08L255.3 133.2C255.947 130.533 254.559 128.042 252.34 126.54ZM184.26 130.98C185.734 136.019 194.391 133.666 198.32 133.2V131.72L184.26 130.98Z" fill="#FF3399"></path>
<path d="M252.34 133.94V136.16C253.224 135.255 253.314 135.109 253.82 133.94H252.34ZM257.52 135.42C257.843 139.102 259.306 142.309 260.48 145.78C261.529 142.324 259.553 138.233 257.52 135.42Z" fill="white"></path>
<path d="M0 136.9V144.3C7.19799 144.28 14.2146 142.82 21.46 142.82C20.4496 133.96 6.5057 136.9 0 136.9Z" fill="#FF3399"></path>
<path d="M250.86 136.9V140.6C252.714 139.259 252.75 138.19 250.86 136.9Z" fill="white"></path>
<path d="M133.2 139.12C133.549 140.167 133.802 140.462 134.68 141.34L130.24 142.82C132.233 143.535 134.058 143.108 136.16 142.82C140.743 142.19 148.317 141.83 150.96 137.64L146.52 139.12C144.028 136.282 136.642 138.48 133.2 139.12Z" fill="#FF3399"></path>
<path d="M246.42 137.64L247.16 140.6C247.716 139.086 247.645 138.679 246.42 137.64ZM56.4866 139.613C56.4455 139.654 56.4044 140.435 56.7333 140.106C56.7745 140.065 56.8155 139.284 56.4866 139.613ZM245.68 141.34C245.302 142.784 245.138 143.158 244.2 144.3L247.16 150.96C245.934 149.728 244.961 148.832 243.46 148L244.2 150.96L242.72 150.22C243.888 154.125 244.446 157.213 244.2 161.32C243.443 160.184 243.604 160.282 242.72 159.84C241.345 161.544 240.273 162.64 238.28 163.54C238.848 164.512 238.788 164.451 239.76 165.02L239.02 167.98C243.649 166.906 247.617 164.026 252.34 163.54C252.797 165.541 253.483 166.966 254.56 168.72C256.232 166.412 255.489 164.631 254.56 162.06C257.023 163.38 259.252 165.049 261.96 165.76C260.772 164.343 259.901 163.66 258.26 162.8C261.67 163.389 262.925 165.399 261.96 168.72H264.92C263.694 171.517 264.06 173.865 264.18 176.86C262.897 176.883 263.065 176.86 261.96 177.6V173.16C260.988 173.728 261.048 173.667 260.48 174.64L256.78 168.72C254.981 173.966 261.653 178.769 264.18 182.78C268.331 179.439 271.333 174.883 273.841 170.229C275.168 167.765 276.527 165.463 274.83 162.808C271.791 158.053 264.725 158.147 261.981 153.717C260.966 152.079 261.227 149.838 261.22 148C260.289 149.648 259.669 151.401 259 153.18C258.164 149.319 260.444 144.722 256.78 142.08C256.693 144.1 256.411 146.012 256.04 148C256.924 148.905 257.014 149.05 257.52 150.22C255.335 150.22 253.398 151.205 253.08 148.74C251.598 149.21 250.19 149.304 248.64 149.48C247.846 146.656 247.502 143.655 245.68 141.34ZM82.14 145.04C82.1459 147.385 82.214 149.449 82.88 151.7C83.6969 149.42 83.1789 147.202 82.14 145.04Z" fill="white"></path>
<path d="M0 146.52V156.88H27.38C25.0432 153.546 24.4238 150.468 23.68 146.52C18.9023 146.534 17.2684 148.118 13.32 150.22C11.6145 145.353 4.22537 146.52 0 146.52ZM248.64 151.7L247.9 155.4C249.862 156.569 251.65 157.644 253.82 158.36V155.4L250.86 156.14C250.27 154.446 249.717 153.122 248.64 151.7Z" fill="#FF3399"></path>
<path d="M83.8663 153.673C83.8256 153.714 83.7842 154.495 84.1135 154.166C84.1542 154.125 84.1956 153.344 83.8663 153.673Z" fill="white"></path>
<path d="M189.44 153.18C192.857 161.229 203.013 163.724 205.72 171.68C208.681 169.823 210.305 166.722 211.64 163.54C207.298 162.217 202.835 160.427 198.32 159.84V156.88C195.103 155.394 193.144 153.384 189.44 153.18Z" fill="#FF3399"></path>
<path d="M52.54 156.88C53.772 160.473 56.0587 163.795 57.72 167.24C58.738 164.551 57.7434 161.591 55.5 159.84L56.24 158.36C54.949 157.701 53.9275 157.285 52.54 156.88Z" fill="white"></path>
<path d="M254.56 156.88V158.36H256.04V156.88H254.56ZM257.274 158.606C256.944 158.936 257.726 158.894 257.766 158.853C258.096 158.524 257.314 158.566 257.274 158.606ZM259 158.36C260.493 160.963 263.874 164.953 266.4 166.5C266.056 165.098 265.611 164.075 264.92 162.8C267.959 165.608 267.848 168.548 267.14 172.42C268.839 171.413 270.09 170.024 271.58 168.72C271.283 166.868 271.315 165.398 271.58 163.54C267.719 159.404 264.54 159.055 259 158.36ZM155.4 159.1C156.004 167.797 166.389 173.568 174.611 170.496C176.924 169.632 178.186 167.423 180.16 166.077C183.416 163.86 185.982 163.299 187.22 159.1C183.758 159.141 181.445 159.519 179.82 162.8C177.903 162.285 175.737 162.43 173.9 161.813C171.356 160.96 166.134 156.124 165.02 161.32C161.694 160.702 158.572 160.315 155.4 159.1ZM242.72 165.02L246.42 164.28C245.732 161.134 243.738 163.023 242.72 165.02ZM0 162.8V164.28H4.44V162.8H0ZM45.6334 163.046C45.3044 163.376 46.0856 163.334 46.1266 163.293C46.4556 162.964 45.6744 163.006 45.6334 163.046Z" fill="#FF3399"></path>
<path d="M267.88 163.54C268.386 164.709 268.476 164.855 269.36 165.76C268.854 164.59 268.764 164.445 267.88 163.54ZM91.02 164.28C94.2775 168.901 98.8958 172.905 104.34 174.64C101.948 170.765 95.386 165.578 91.02 164.28ZM100.64 164.28V167.24C101.578 166.098 101.742 165.724 102.12 164.28H100.64Z" fill="white"></path>
<path d="M0 166.5V176.12C2.5455 175.488 4.78434 174.273 7.4 173.9C7.27792 168.199 5.65606 166.52 0 166.5Z" fill="#FF3399"></path>
<path d="M230.14 166.5C231.468 168.355 232.725 169.612 234.58 170.94C233.812 168.283 232.797 167.268 230.14 166.5ZM243.46 170.2C244.907 173.322 247.068 175.971 250.12 177.6C249.744 174.772 248.514 172.682 247.16 170.2C246.188 170.768 246.248 170.708 245.68 171.68C244.802 170.913 244.493 170.689 243.46 170.2ZM65.12 171.68L58.46 175.38C61.1082 176.25 65.193 174.818 65.12 171.68ZM167.98 182.78C172.916 184.851 178.817 183.217 183.52 181.3C179.392 179.705 172.649 182.777 167.98 182.78ZM245.68 181.3C246.52 188.095 243.797 192.692 241.98 199.06C246.321 195.44 251.958 185.465 245.68 181.3ZM252.34 181.3C253.349 184.449 255.851 186.951 259 187.96L258.26 184.26C256.93 184.26 257.134 184.27 256.04 185C255.074 183.197 254.143 182.266 252.34 181.3ZM56.98 202.02C63.3974 200.25 64.8647 193.907 65.12 187.96C61.8178 189.006 53.7252 192.633 53.8927 196.877C53.9679 198.784 55.8895 200.601 56.98 202.02ZM77.7 190.92V192.4H79.18V190.92H77.7ZM77.7 193.88C77.9975 195.731 77.9657 197.202 77.7 199.06C78.8899 200.133 79.2274 200.578 79.92 202.02C82.6758 201 83.9389 199.517 85.1 196.84L82.14 198.32C82.4108 196.621 82.8645 195.44 83.62 193.88L80.66 194.62C80.66 192.764 79.3946 193.449 77.7 193.88ZM237.54 199.06C239.767 197.579 241.207 196.486 241.98 193.88C238.811 194.393 237.35 195.806 237.54 199.06ZM0 199.8V201.28H28.86C33.496 201.28 38.7517 200.442 42.92 202.76C43.3964 201.202 43.5904 199.952 43.66 198.32C34.5445 200.012 24.7725 199.036 15.54 199.081C10.3694 199.106 5.21009 199.8 0 199.8ZM41.44 204.24C40.9403 207.021 40.7895 209.631 41.44 212.38C42.6706 209.819 42.8618 207.063 42.92 204.24H41.44ZM244.94 206.46C247.537 207.174 249.693 206.793 252.34 206.46V204.98C249.605 204.988 247.241 204.888 244.94 206.46ZM256.04 206.46C257.18 207.794 257.962 207.816 259.74 207.94C258.445 207.011 257.626 206.746 256.04 206.46ZM95.46 210.16C96.2163 213.968 98.5865 217.265 100.64 220.52C105.251 216.128 99.9392 211.593 95.46 210.16ZM116.92 210.16C117.999 210.96 118.584 211.223 119.88 211.64C118.908 210.443 118.491 210.387 116.92 210.16ZM120.62 211.64C121.544 212.147 121.766 212.194 122.84 212.38C121.916 211.873 121.694 211.826 120.62 211.64ZM239.266 213.614C239.226 213.654 239.184 214.436 239.514 214.106C239.554 214.066 239.596 213.284 239.266 213.614ZM250.12 217.56L250.86 219.78C251.744 219.337 251.583 219.435 252.34 218.3C254.262 219.636 255.267 219.658 257.52 219.04C255.555 216.325 253.151 217.179 250.12 217.56ZM90.28 221.26C89.5504 222.354 89.54 222.15 89.54 223.48C90.4939 222.412 90.5767 222.567 90.28 221.26ZM262.7 221.26C264.291 223.188 267.032 224.048 269.36 224.96C267.718 222.258 265.758 221.684 262.7 221.26ZM250.12 222.74C251.772 228.253 257.869 232.213 263.44 233.1C260.632 229.187 254.848 224.013 250.12 222.74ZM272.32 229.4C272.412 233.306 273.113 236.384 276.76 238.28C276.76 236.95 276.75 237.154 276.02 236.06C282.649 234.829 289.276 234.58 296 234.58V229.4H272.32ZM255.3 231.62C255.862 234.271 257.246 235.555 259 237.54C259.498 235.749 258.663 234.183 258.26 232.36C257.298 232.841 257.52 232.469 257.52 233.84C256.698 232.551 256.58 232.272 255.3 231.62ZM28.12 233.84C29.0249 234.724 29.1708 234.814 30.34 235.32C29.6147 234.001 29.6684 234.14 28.12 233.84ZM23.68 237.54L24.42 239.76C23.0904 239.76 23.2941 239.77 22.2 240.5C24.9256 240.877 26.8196 238.434 28.86 236.8C26.9857 236.403 25.5209 236.963 23.68 237.54ZM233.1 236.8C233.543 237.684 233.445 237.523 234.58 238.28C233.608 238.848 233.668 238.788 233.1 239.76C234.021 240.647 233.895 240.599 233.84 241.98L239.02 244.2L236.8 245.68C238.053 246.466 239.05 246.805 240.5 247.16C240.151 246.112 239.898 245.818 239.02 244.94L241.24 245.68L241.98 242.72C239.536 241.173 237.42 240.325 234.58 239.76L236.06 237.54L233.1 236.8ZM0 238.28V253.08C5.09227 251.253 2.96 242.69 2.96 238.28H0ZM91.02 242.72C92.5918 242.055 92.5747 242.072 93.24 240.5C91.6682 241.165 91.6853 241.148 91.02 242.72ZM259.74 240.5L259 245.68C261.006 244.147 261.157 242.538 259.74 240.5ZM279.72 241.98C280.78 245.855 282.105 249.441 285.64 251.6C285.66 253.36 285.684 253.585 287.12 254.56C285.858 249.979 283.453 244.986 279.72 241.98ZM96.94 244.94C98.7582 245.322 99.5315 244.936 100.64 243.46L96.94 244.94ZM285.64 244.2C287.868 247.354 292.497 246.42 296 246.42V244.2H285.64ZM255.3 250.86V253.82C256.1 252.741 256.363 252.156 256.78 250.86H255.3ZM124.32 251.6C123.289 252.661 122.668 253.113 121.36 253.82C122.327 257.134 119.354 258.959 118.4 261.96L123.58 257.52C121.588 260.296 119.209 262.576 117.66 265.66C123.732 270.282 131.214 277.461 131.613 285.64C131.778 288.989 130.167 292.055 129.5 295.26H148.74C151.444 295.26 154.731 296.164 155.4 293.04C156.278 293.807 156.587 294.031 157.62 294.52V290.08C151.013 283.821 145.34 276.291 138.93 269.757C136.943 267.732 135.387 264.788 132.957 263.271C130.287 261.607 126.549 261.875 123.58 260.48L124.32 257.52C125.414 258.25 125.21 258.26 126.54 258.26L128.02 253.82L124.32 255.3C125.011 254.025 125.456 253.002 125.8 251.6H124.32ZM188.7 254.56L187.96 257.52C189.185 256.481 189.256 256.074 188.7 254.56ZM113.22 257.52C113.819 259.164 114.507 260.473 115.44 261.96C116.6 260.522 117.218 259.312 117.66 257.52C115.914 257.165 114.949 257.136 113.22 257.52ZM236.8 256.78C235.982 258.532 235.578 260.046 235.32 261.96C236.786 260.275 237.441 258.964 236.8 256.78ZM8.14 258.26C8.27017 259.65 8.46427 260.627 8.88 261.96C9.38068 260.715 9.48584 259.608 9.62 258.26H8.14ZM232.36 259.74L233.1 260.48L232.36 259.74ZM185.74 261.22V262.7H187.22V261.22H185.74ZM134.68 261.96C135.186 263.129 135.276 263.275 136.16 264.18V261.96H134.68ZM7.4 263.44V264.92H8.88V263.44H7.4ZM136.9 264.92C141.25 273.412 150.406 278.89 155.4 287.12H156.88C157.732 285.498 158.181 284.472 158.36 282.68C160.449 280.826 159.457 277.225 159.84 274.54L156.88 275.28C157.825 273.863 157.825 274.477 156.88 273.06L153.92 274.54C154.91 272.572 155.68 270.773 156.14 268.62C155.168 269.188 155.228 269.128 154.66 270.1H153.18C151.731 268.118 149.845 269.829 148 270.84L148.74 268.62L145.04 269.36C143.3 266.128 140.319 265.628 136.9 264.92ZM184.26 264.92C183.53 266.014 183.52 265.81 183.52 267.14C184.827 266.416 184.967 266.236 184.26 264.92ZM293.04 267.14C293.641 269.199 294.115 269.824 296 270.84V267.14H293.04ZM182.04 269.36C181.381 270.651 180.965 271.673 180.56 273.06C182.162 272.023 182.71 271.104 183.52 269.36H182.04ZM101.38 273.8H102.86C101.982 274.678 101.729 274.972 101.38 276.02C104.696 274.893 106.767 272.931 108.78 270.1C105.709 270.889 103.465 271.282 101.38 273.8ZM164.28 272.32L165.76 274.54H162.8C163.964 276.51 165.143 277.331 167.24 278.24C166.491 279.996 166.04 281.532 165.76 283.42L162.8 282.68C163.879 283.48 164.464 283.743 165.76 284.16C164.427 284.576 163.45 284.77 162.06 284.9C163.28 285.584 164.41 285.972 165.76 286.38C164.026 287.379 162.528 288.149 160.58 288.6C160.731 290.969 161.355 293.002 162.06 295.26H189.44L188.7 291.56L185 290.82L187.96 287.12L188.7 290.08L191.66 287.86L190.92 284.9C189.041 285.166 187.489 285.641 185.74 286.38C185.015 285.061 185.068 285.2 183.52 284.9C184.398 284.022 184.651 283.728 185 282.68C184.079 281.793 184.205 281.841 184.26 280.46C182.211 280.46 183.485 279.563 181.916 278.61C180.812 277.939 179.429 278.665 178.34 278.98C179.031 277.705 179.476 276.682 179.82 275.28C177.893 276.406 176.8 277.982 175.38 279.72L174.64 276.76C176.082 276.067 176.527 275.73 177.6 274.54C175.788 274.117 173.781 274.203 172.023 273.683C168.588 272.666 168.097 270.813 164.28 272.32ZM110.26 273.06C111.084 275.975 112.528 276.718 115.44 276.02V277.5L117.66 276.76C115.995 273.323 113.883 272.891 110.26 273.06ZM89.54 273.06C90.4495 274.444 90.9223 274.706 92.5 275.28C91.427 274.09 90.9823 273.753 89.54 273.06ZM0 277.5C2.22981 277.124 2.86601 276.642 3.7 274.54C1.56534 275.066 0.620862 275.365 0 277.5ZM267.14 276.76C268.024 281.421 269.539 284.597 268.62 289.34L261.96 287.12C263.53 289.686 265.781 290.724 268.62 291.56C269.89 289.383 270.904 287.334 271.58 284.9L272.32 286.38C272.923 284.422 272.478 282.513 272.32 280.46L267.14 276.76ZM117.66 277.5C118.003 279.107 118.478 280.429 119.14 281.94C120.804 281.086 121.246 280.644 122.1 278.98C120.559 278.167 119.384 277.733 117.66 277.5ZM122.84 280.46L122.1 283.42C123.064 282.186 123.249 281.946 122.84 280.46ZM125.8 281.94C124.806 284.023 123.796 285.558 122.1 287.12C123.186 289.375 125.02 289.777 126.54 291.56C127.973 289.171 128.495 287.661 128.02 284.9C127.048 285.468 127.108 285.408 126.54 286.38C126.567 284.758 126.84 283.518 127.28 281.94H125.8ZM258.26 284.9L256.04 288.6C259.549 287.187 263.084 285.336 264.92 281.94C262.627 282.972 260.781 284.617 258.26 284.9Z" fill="white"></path>
<path d="M137.64 287.86C139.151 288.908 140.238 289.151 142.08 289.34C140.569 288.292 139.482 288.049 137.64 287.86Z" fill="#FF3399"></path>
<path d="M159.346 290.573C159.306 290.614 159.264 291.396 159.593 291.066C159.634 291.026 159.676 290.244 159.346 290.573ZM259.74 292.3C259.01 293.394 259 293.19 259 294.52C257.051 293.528 256.485 293.368 255.3 295.26C258.195 295.164 259.563 294.725 261.22 292.3H259.74ZM190.92 293.78V295.26H193.88V293.78H190.92Z" fill="white"></path>
</g>
<defs>
<clipPath id="SvgjsClipPath1000">
<rect width="296" height="296" rx="148" fill="white"></rect>
</clipPath>
</defs>
</svg><style>@media (prefers-color-scheme: light) { :root { filter: none; } }
</style></svg>